<svg xmlns="http://www.w3.org/2000/svg" xmlns:xlink="http://www.w3.org/1999/xlink" width="140" height="139" viewBox="0 0 140 139">
  <defs>
    <filter id="Ellipse_17" x="0" y="0" width="140" height="139" filterUnits="userSpaceOnUse">
      <feOffset dy="-3" input="SourceAlpha"/>
      <feGaussianBlur stdDeviation="3" result="blur"/>
      <feFlood flood-opacity="0.161"/>
      <feComposite operator="in" in2="blur"/>
      <feComposite in="SourceGraphic"/>
    </filter>
    <filter id="Ellipse_15" x="9" y="16" width="122" height="123" filterUnits="userSpaceOnUse">
      <feOffset dy="-3" input="SourceAlpha"/>
      <feGaussianBlur stdDeviation="3" result="blur-2"/>
      <feFlood flood-opacity="0.161"/>
      <feComposite operator="in" in2="blur-2"/>
      <feComposite in="SourceGraphic"/>
    </filter>
    <filter id="Ellipse_14" x="18" y="35" width="104" height="104" filterUnits="userSpaceOnUse">
      <feOffset dy="-3" input="SourceAlpha"/>
      <feGaussianBlur stdDeviation="3" result="blur-3"/>
      <feFlood flood-opacity="0.161"/>
      <feComposite operator="in" in2="blur-3"/>
      <feComposite in="SourceGraphic"/>
    </filter>
    <filter id="Ellipse_13" x="27" y="54" width="86" height="85" filterUnits="userSpaceOnUse">
      <feOffset dy="-3" input="SourceAlpha"/>
      <feGaussianBlur stdDeviation="3" result="blur-4"/>
      <feFlood flood-opacity="0.161"/>
      <feComposite operator="in" in2="blur-4"/>
      <feComposite in="SourceGraphic"/>
    </filter>
    <filter id="Ellipse_18" x="37" y="73" width="66" height="66" filterUnits="userSpaceOnUse">
      <feOffset dy="-3" input="SourceAlpha"/>
      <feGaussianBlur stdDeviation="3" result="blur-5"/>
      <feFlood flood-color="#042437" flood-opacity="0.161"/>
      <feComposite operator="in" in2="blur-5"/>
      <feComposite in="SourceGraphic"/>
    </filter>
  </defs>
  <g id="Group_7" data-name="Group 7" transform="translate(-6 -4)">
    <g transform="matrix(1, 0, 0, 1, 6, 4)" filter="url(#Ellipse_17)">
      <g id="Ellipse_17-2" data-name="Ellipse 17" transform="translate(9 12)" fill="#2e66dd" stroke="#2e66dd" stroke-width="1">
        <ellipse cx="61" cy="60.5" rx="61" ry="60.5" stroke="none"/>
        <ellipse cx="61" cy="60.5" rx="60.5" ry="60" fill="none"/>
      </g>
    </g>
    <g transform="matrix(1, 0, 0, 1, 6, 4)" filter="url(#Ellipse_15)">
      <g id="Ellipse_15-2" data-name="Ellipse 15" transform="translate(18 28)" fill="#4f8df5" stroke="#4f8df5" stroke-width="1">
        <ellipse cx="52" cy="52.5" rx="52" ry="52.5" stroke="none"/>
        <ellipse cx="52" cy="52.5" rx="51.5" ry="52" fill="none"/>
      </g>
    </g>
    <g transform="matrix(1, 0, 0, 1, 6, 4)" filter="url(#Ellipse_14)">
      <g id="Ellipse_14-2" data-name="Ellipse 14" transform="translate(27 47)" fill="#9ac4ff" stroke="#9ac4ff" stroke-width="1">
        <circle cx="43" cy="43" r="43" stroke="none"/>
        <circle cx="43" cy="43" r="42.5" fill="none"/>
      </g>
    </g>
    <g transform="matrix(1, 0, 0, 1, 6, 4)" filter="url(#Ellipse_13)">
      <g id="Ellipse_13-2" data-name="Ellipse 13" transform="translate(36 66)" fill="#c8e3ff" stroke="#c8e3ff" stroke-width="1">
        <ellipse cx="34" cy="33.5" rx="34" ry="33.5" stroke="none"/>
        <ellipse cx="34" cy="33.5" rx="33.5" ry="33" fill="none"/>
      </g>
    </g>
    <g transform="matrix(1, 0, 0, 1, 6, 4)" filter="url(#Ellipse_18)">
      <circle id="Ellipse_18-2" data-name="Ellipse 18" cx="24" cy="24" r="24" transform="translate(46 85)" fill="#dbe9f7"/>
    </g>
  </g>
</svg>
